<svg width="81" height="24" viewBox="0 0 81 24" fill="none" xmlns="http://www.w3.org/2000/svg">
  <path d="M48.6 11.5c0-3.3-2.1-5.5-5.2-5.5-3.2 0-5.2 2.2-5.2 5.5s2.1 5.5 5.2 5.5c3.1 0 5.2-2.2 5.2-5.5zm-7.9 0c0-1.9.9-3.2 2.7-3.2 1.7 0 2.7 1.3 2.7 3.2 0 1.9-.9 3.2-2.7 3.2-1.8 0-2.7-1.3-2.7-3.2zM67.8 6h-2.6l-3.3 4.8L58.6 6H56v11h2.5v-6.5L61.3 15h1.2l2.8-4.5V17h2.5V6z" fill="#000"/>
  <path d="M12 0C5.4 0 0 5.4 0 12s5.4 12 12 12 12-5.4 12-12S18.6 0 12 0zm0 22C6.5 22 2 17.5 2 12S6.5 2 12 2s10 4.5 10 10-4.5 10-10 10z" fill="#000"/>
  <path d="M12 4c-4.4 0-8 3.6-8 8s3.6 8 8 8 8-3.6 8-8-3.6-8-8-8zm0 14c-3.3 0-6-2.7-6-6s2.7-6 6-6 6 2.7 6 6-2.7 6-6 6z" fill="#000"/>
  <path d="M12 8c-2.2 0-4 1.8-4 4s1.8 4 4 4 4-1.8 4-4-1.8-4-4-4zm0 6c-1.1 0-2-.9-2-2s.9-2 2-2 2 .9 2 2-.9 2-2 2z" fill="#000"/>
</svg> 